<svg version="1.1" id="Layer_1" xmlns="http://www.w3.org/2000/svg" xmlns:xlink="http://www.w3.org/1999/xlink" x="0px" y="0px"
	 width="100%" viewBox="0 0 1278 442" enable-background="new 0 0 1278 442" xml:space="preserve">
<path fill="#5F308B" opacity="1.000000" stroke="none" 
	d="
M597.000000,443.000000 
	C596.555664,443.000000 596.111328,443.000000 595.174255,442.619385 
	C594.437439,438.926178 594.193359,435.613586 593.726318,431.938416 
	C591.723572,431.386597 589.944397,431.039062 588.164001,431.033020 
	C572.773132,430.980743 557.382019,430.989929 541.995483,430.513428 
	C542.000000,394.908844 542.016479,359.771667 541.954529,324.634644 
	C541.951233,322.754944 541.288086,320.876434 540.697693,319.002563 
	C540.463196,319.007721 539.994141,319.000885 539.699768,318.703186 
	C533.999207,318.405518 528.593018,318.405518 522.929382,318.405518 
	C522.929382,320.736145 522.929443,322.552460 522.929382,324.368805 
	C522.929321,354.440491 522.947571,384.512207 522.917908,414.583862 
	C522.909241,423.381805 522.763977,432.179626 522.441650,440.643433 
	C522.123230,438.484985 521.976440,436.660614 521.975769,434.836182 
	C521.962341,398.343719 521.965759,361.851288 521.965759,325.358826 
	C521.965759,323.573456 521.965759,321.788116 521.965759,320.002747 
	C521.642212,320.002777 521.318665,320.002808 520.995117,320.002808 
	C520.995117,321.791779 520.995117,323.580719 520.995117,325.369690 
	C520.995117,362.028778 520.904114,398.688354 521.106995,435.346313 
	C521.133179,440.079498 519.676636,441.191559 515.197693,441.099365 
	C501.872711,440.825256 488.537537,440.911926 475.208649,441.063202 
	C471.915802,441.100586 470.930481,440.009430 470.939880,436.761444 
	C471.035065,403.935211 471.034302,371.108459 470.940521,338.282166 
	C470.931305,335.063812 471.854034,333.889984 475.180084,333.952026 
	C484.841400,334.132233 494.509308,334.086945 504.171875,333.944061 
	C505.768188,333.920502 507.350647,332.959412 508.915100,332.003479 
	C508.906097,327.168671 508.921539,322.761932 508.722992,317.985413 
	C507.891754,317.417145 507.274719,317.045624 506.657196,317.044922 
	C476.916748,317.010773 447.176208,316.993042 417.435913,317.063232 
	C416.311035,317.065887 415.188293,317.954712 414.109161,318.865570 
	C414.073212,323.216980 413.992645,327.133392 413.672760,331.290009 
	C415.043335,332.355286 416.639069,333.861633 418.265381,333.895355 
	C429.166168,334.121368 440.073456,334.034027 450.985413,334.513916 
	C450.991455,370.315216 450.990692,405.650940 450.522339,440.995087 
	C432.802795,441.002502 415.550629,441.043121 398.299286,440.939087 
	C396.484955,440.928131 394.675781,440.064941 393.026398,439.318481 
	C399.994324,433.978546 403.870758,427.043488 406.393402,418.990173 
	C410.085602,417.427124 409.957245,415.756836 406.840027,413.573669 
	C406.791504,411.445770 406.845825,409.734924 407.269745,407.950562 
	C408.061554,407.078979 408.966888,406.185364 408.830902,405.497681 
	C407.528351,398.911163 405.453186,392.568512 400.292206,387.938568 
	C398.118042,385.988098 395.274231,384.784119 392.837708,383.190308 
	C392.940582,383.139862 392.765625,383.287872 392.813721,382.920227 
	C390.112274,380.381104 387.637817,377.644958 384.560669,376.146118 
	C375.999390,371.975830 366.295563,370.372864 358.685883,363.956543 
	C353.707977,359.759247 349.541443,354.296997 350.535828,348.443695 
	C351.640411,341.941864 354.897552,334.886078 362.991577,333.204956 
	C373.612915,330.998840 383.994690,331.430389 393.818390,336.774445 
	C394.530487,337.161865 395.922333,336.299713 397.100159,335.665649 
	C398.602051,331.117889 400.001984,326.922974 401.541718,322.309052 
	C383.384064,315.069855 365.760986,312.945801 348.606140,322.631042 
	C327.395874,334.605927 325.891174,362.768433 345.630249,377.131195 
	C351.195465,381.180603 357.897583,383.670868 364.088806,386.855713 
	C369.831635,389.809875 375.918762,392.240601 381.258881,395.796112 
	C388.549316,400.650177 390.220459,408.264069 389.027130,416.557739 
	C387.991760,423.753418 383.998505,429.270966 377.189362,431.352936 
	C369.063721,433.837494 360.578552,435.699097 351.935791,432.540894 
	C351.385010,431.564972 350.999847,430.612000 350.355255,430.380066 
	C345.385803,428.591949 340.445282,426.562225 335.311218,425.496368 
	C333.869598,425.197113 331.396027,427.562622 330.188843,429.267365 
	C329.410767,430.366089 330.077637,432.488007 330.077576,434.097717 
	C330.058258,434.044128 330.170959,434.027191 329.836029,434.212280 
	C328.718781,436.479340 327.936462,438.561249 327.019379,441.001740 
	C325.325073,441.001740 323.496338,440.748840 321.781952,441.082886 
	C320.447449,441.342926 319.255371,442.333893 318.000000,443.000000 
	C317.555664,443.000000 317.111328,443.000000 316.194794,442.669922 
	C310.258148,426.197235 304.793701,410.054626 299.603516,393.720398 
	C299.683472,391.237854 299.958466,388.780762 299.216034,386.683929 
	C295.409790,375.934296 291.151276,365.343384 287.417786,354.569824 
	C283.580841,343.497742 280.245209,332.252319 276.463013,321.160248 
	C276.021759,319.866119 274.136139,319.064514 272.459290,318.088440 
	C267.182800,318.151520 262.358185,318.342529 257.554688,318.105225 
	C254.420593,317.950348 252.948563,318.887268 251.900131,322.040741 
	C249.645935,328.820862 246.765610,335.392822 243.766266,342.097961 
	C242.668549,343.368866 241.697067,344.510071 241.264694,345.828094 
	C238.702621,353.638550 236.300552,361.501343 233.778122,369.325073 
	C230.081192,380.791718 226.473450,392.290192 222.556000,403.681702 
	C219.019028,413.966827 214.766098,424.016998 211.530579,434.389648 
	C210.008591,439.268982 207.880127,441.829681 202.753754,441.151184 
	C202.815079,441.051697 202.742737,441.273926 202.803894,440.915680 
	C202.131287,439.768555 201.397522,438.979706 200.726898,438.173615 
	C200.790024,438.156403 200.744446,438.279083 200.802338,437.900330 
	C196.942490,430.913330 193.093765,424.261993 189.026657,417.746979 
	C188.468872,416.853455 186.824890,416.638000 185.408691,415.924011 
	C175.440552,401.400696 165.747543,387.062042 155.985733,372.621582 
	C171.325058,354.593842 186.481094,336.781555 202.319397,318.167389 
	C195.926743,318.167389 190.631149,317.883850 185.392090,318.304443 
	C183.242737,318.476990 180.588837,319.642090 179.233414,321.254364 
	C169.907990,332.346619 160.838242,343.654755 151.741455,354.937958 
	C145.329193,362.891418 139.003876,370.914948 131.964203,379.755585 
	C131.964203,358.716553 131.964203,338.686462 131.964203,318.015503 
	C126.212990,318.015503 120.923439,318.015503 115.235428,318.213867 
	C114.559074,320.328003 114.041428,322.243408 114.038673,324.159546 
	C113.982796,363.099121 113.985893,402.038849 113.510895,440.988586 
	C78.279404,440.999542 43.514187,440.985443 8.749078,441.041779 
	C6.853381,441.044830 4.958635,441.635345 2.800902,441.970337 
	C2.363065,441.995392 2.187771,442.002533 2.009316,441.543945 
	C2.012681,295.048126 2.019207,149.018021 2.491867,2.994030 
	C423.685028,3.000026 844.412048,2.997914 1265.139038,3.013163 
	C1274.109253,3.013488 1272.984619,1.921437 1272.986084,11.098426 
	C1273.008545,154.395584 1273.004272,297.692749 1272.536865,440.992188 
	C1239.405762,441.001282 1206.744019,441.008087 1174.036377,440.547241 
	C1174.000122,430.602722 1174.007935,421.125763 1174.019409,411.648834 
	C1174.065552,373.410919 1174.112915,335.172974 1174.423584,296.622192 
	C1174.790405,267.167297 1174.895630,238.025253 1174.947388,208.883102 
	C1174.947754,208.682709 1174.209473,208.481003 1173.567261,208.017548 
	C1172.210571,203.963104 1169.554932,202.645340 1165.763672,202.663528 
	C1150.942505,202.734619 1136.120483,202.739807 1121.299316,202.660660 
	C1117.567993,202.640732 1114.919678,204.083069 1112.985229,207.155548 
	C1112.492676,208.442566 1112.027588,209.940628 1112.026489,211.439041 
	C1111.988403,260.052704 1111.994995,308.666382 1111.994995,357.280060 
	C1111.994995,383.418243 1112.035156,409.556580 1111.907349,435.694153 
	C1111.898682,437.487640 1110.635132,439.275024 1109.513428,441.046814 
	C1107.159302,440.921265 1105.247070,440.814209 1103.000000,440.688385 
	C1103.000000,438.116364 1103.000000,436.138641 1103.000000,434.160889 
	C1103.000000,371.688049 1103.008179,309.215210 1102.961182,246.742432 
	C1102.959839,244.837708 1102.385010,242.933411 1102.003418,240.563538 
	C1101.977539,231.393524 1102.025879,222.688904 1102.335083,213.748795 
	C1101.592407,211.441650 1100.589111,209.369965 1099.684570,207.285156 
	C1099.783447,207.272018 1099.612305,207.374283 1099.708496,207.004303 
	C1097.636108,204.836227 1095.686401,201.950241 1093.254272,201.460556 
	C1087.745361,200.351410 1081.985107,199.955093 1076.351807,200.120071 
	C1066.891968,200.397156 1057.451538,201.336960 1047.534058,202.002670 
	C1000.043457,202.004517 953.021729,202.001648 905.613403,201.947632 
	C903.393738,201.267944 901.569153,200.126404 899.726074,200.095764 
	C889.274902,199.922119 878.816772,199.902283 868.368164,200.143509 
	C866.895874,200.177490 865.463257,201.928589 863.613953,202.995697 
	C860.637512,204.155670 857.083679,204.492844 855.688354,206.405045 
	C852.944519,210.165558 850.615540,214.607376 849.503174,219.110275 
	C845.813660,234.044937 842.768433,249.138077 839.425476,264.159180 
	C834.198853,287.644562 828.995361,311.135406 823.659912,334.596161 
	C819.320251,353.678101 814.666077,372.689087 810.402710,391.787659 
	C806.678894,408.469177 803.305481,425.228973 799.473633,441.954773 
	C798.765442,441.959747 798.360840,441.964111 797.668274,441.672852 
	C796.569031,441.252258 795.757812,441.018372 794.946533,441.017944 
	C760.221252,440.999390 725.496033,440.992096 690.770813,441.040527 
	C689.541443,441.042267 688.312927,441.621857 686.843384,442.041870 
	C686.401794,442.434418 686.200928,442.717224 686.000000,443.000000 
	C686.000000,443.000000 685.500000,443.000000 685.064087,442.624817 
	C684.406067,438.871704 684.184021,435.493805 683.706543,431.782715 
	C682.146057,431.299316 680.841003,431.020020 679.535645,431.018494 
	C662.720520,430.998444 645.905457,431.017944 629.018188,430.684143 
	C629.003967,429.879974 629.061951,429.419128 629.393188,428.650452 
	C629.772461,416.314819 629.900879,404.287079 629.945862,392.259033 
	C629.949890,391.188324 629.410889,390.115540 629.051025,388.777222 
	C629.019714,388.331299 629.061340,388.151855 629.564758,387.984314 
	C644.979126,387.995239 659.932129,388.049713 674.883484,387.916412 
	C676.566772,387.901428 680.072632,389.417969 678.962158,384.588379 
	C678.416260,380.217804 677.976196,376.295868 677.751160,372.118011 
	C677.022827,371.573608 676.080444,371.037750 675.136047,371.033936 
	C661.650940,370.979401 648.163635,370.869812 634.681580,371.078552 
	C630.911316,371.136932 629.808411,369.964050 629.906006,366.252014 
	C630.146606,357.101654 630.140259,347.936829 629.909241,338.785980 
	C629.816833,335.125153 630.824402,333.860748 634.645813,333.919556 
	C648.460754,334.132111 662.281494,334.051880 676.098755,333.936951 
	C677.704529,333.923645 679.302856,333.003723 681.094360,332.171875 
	C681.199524,327.248108 681.114868,322.656586 680.749878,317.748352 
	C679.826782,317.292358 679.184082,317.032043 678.541199,317.031311 
	C657.548645,317.007324 636.555969,316.988739 615.563660,317.056702 
	C614.374023,317.060577 613.186768,317.804535 612.020081,318.091431 
	C612.041748,317.978790 612.266663,318.023804 611.910889,318.266296 
	C611.366638,320.466095 611.015564,322.423218 611.013733,324.380707 
	C610.980713,360.325836 610.989563,396.271027 610.989502,432.216187 
	C610.989502,440.985321 610.986511,440.875732 602.363159,441.105438 
	C600.559875,441.153473 598.786926,442.338776 597.000000,443.000000 
M1118.613525,201.593246 
	C1134.830933,201.672226 1151.048462,201.759613 1167.265991,201.795776 
	C1167.843994,201.797073 1168.423096,201.292053 1168.421875,200.417038 
	C1152.165771,200.299652 1135.909546,200.172577 1119.653320,200.106552 
	C1119.102783,200.104309 1118.549683,200.716583 1118.613525,201.593246 
M1179.414185,78.398293 
	C1178.770630,78.267281 1178.127075,78.022263 1177.483398,78.021713 
	C1152.210327,78.000145 1126.937378,77.986397 1101.664429,78.042770 
	C1100.447876,78.045486 1099.232544,78.692055 1098.626221,79.589417 
	C1099.278931,79.682846 1099.931519,79.857590 1100.584229,79.857979 
	C1125.820435,79.873016 1151.056519,79.884605 1176.292603,79.835831 
	C1177.530518,79.833435 1178.767334,79.284920 1179.414185,78.398293 
M1182.574585,174.428894 
	C1182.715698,173.621231 1182.979370,172.813644 1182.979980,172.005859 
	C1183.001709,142.898743 1183.010986,113.791580 1182.957886,84.684547 
	C1182.955688,83.456413 1182.340698,82.229385 1181.439941,81.586807 
	C1181.223267,84.824188 1181.006470,88.061569 1180.470215,90.513168 
	C1180.470215,87.404526 1180.470215,84.295876 1180.470215,81.027527 
	C1152.614014,81.027527 1125.550903,81.027527 1097.936768,81.027527 
	C1097.936768,93.374001 1097.936768,105.434692 1097.936768,117.313705 
	C1085.127441,117.313705 1072.872192,117.313705 1061.599854,117.048630 
	C1073.052124,117.048630 1084.504395,117.048630 1095.956787,117.048630 
	C1084.871826,116.098900 1073.785522,116.079567 1062.699585,116.141960 
	C1061.951416,116.146179 1061.206543,116.766647 1060.474731,117.404335 
	C1060.474731,117.404335 1060.181396,117.484917 1060.088135,116.469482 
	C1060.088135,103.714661 1060.088135,90.959839 1060.088135,78.205009 
	C1059.630371,78.206482 1059.172729,78.207947 1058.714966,78.209419 
	C1058.714966,90.606377 1058.714966,103.003342 1058.366943,114.602882 
	C1058.228516,102.142761 1058.090210,89.682640 1057.491699,76.511314 
	C1056.861328,76.347404 1056.231201,76.040855 1055.600708,76.040146 
	C1030.245972,76.011810 1004.891052,75.994911 979.536438,76.058929 
	C978.373535,76.061874 977.212585,76.824348 975.914978,78.133476 
	C975.872620,89.508339 975.860718,100.883492 975.751648,112.257721 
	C975.737000,113.777504 975.230164,115.292549 974.905151,115.897713 
	C974.905151,103.673073 974.905151,91.448425 974.905151,79.223785 
	C974.610596,79.225815 974.316040,79.227837 974.021484,79.229866 
	C974.021484,91.792625 974.021484,104.355385 973.494751,117.053078 
	C973.320129,117.004494 973.145569,116.955910 972.367554,116.340508 
	C963.639038,116.228508 954.910522,116.047012 946.182007,116.050087 
	C943.797852,116.050926 941.413757,116.606239 938.505005,117.053047 
	C938.329102,117.008423 938.153137,116.963806 937.986450,115.992363 
	C937.986450,103.387741 937.986450,90.783119 937.986450,78.178497 
	C937.671143,78.180138 937.355774,78.181778 937.040466,78.183418 
	C937.040466,91.074402 937.040466,103.965393 936.264587,116.507515 
	C936.207153,104.757599 936.094299,93.007477 936.138184,81.257935 
	C936.147217,78.834099 935.959473,76.970993 932.793701,76.129593 
	C931.945374,75.757874 931.097961,75.063622 930.248657,75.061447 
	C906.811096,75.001289 883.372986,74.959854 859.936462,75.122078 
	C858.311707,75.133316 856.697998,76.746567 854.982056,78.073532 
	C854.687439,78.432091 854.392822,78.790649 853.840027,78.817810 
	C853.539917,78.898048 853.239807,78.978279 852.367798,79.644501 
	C852.248535,80.290161 852.025391,80.935760 852.024963,81.581497 
	C852.006165,111.137566 851.995422,140.693665 852.044800,170.249664 
	C852.046875,171.481964 852.630981,172.713303 853.163269,174.294479 
	C853.471069,174.152054 853.778809,174.009628 854.619141,174.454147 
	C857.090759,175.028198 859.562012,176.102463 862.033997,176.104019 
	C953.297424,176.161041 1044.560913,176.114685 1135.824341,176.094421 
	C1148.813965,176.091537 1161.805176,176.255646 1174.791626,176.067108 
	C1176.790161,176.038086 1178.766968,174.516220 1181.101074,174.180237 
	C1181.387329,174.454361 1181.673584,174.728485 1182.574585,174.428894 
M1141.950928,177.990463 
	C1153.581543,177.990463 1165.212158,177.990463 1176.842773,177.990463 
	C1176.840698,177.715515 1176.838501,177.440582 1176.836426,177.165634 
	C1164.918579,177.165634 1153.000732,177.165634 1140.138794,177.083038 
	C1046.149780,177.083038 952.160889,177.083038 858.171936,177.083038 
	C858.172180,177.381775 858.172363,177.680527 858.172607,177.979263 
	C952.454102,177.979263 1046.735596,177.979263 1141.950928,177.990463 
z"/>
<path fill="#FEFEFE" opacity="1.000000" stroke="none" 
	d="
M1102.074341,213.984283 
	C1102.025879,222.688904 1101.977539,231.393524 1101.916870,241.023270 
	C1101.896240,276.372772 1101.869019,310.797180 1101.884888,345.221558 
	C1101.899902,377.814362 1101.959839,410.407196 1102.000000,443.000000 
	C1071.979126,443.000000 1041.958252,443.000000 1011.632080,442.664185 
	C1011.351135,440.860474 1011.375488,439.392548 1011.541748,437.480530 
	C1011.528381,411.227295 1011.516113,385.416107 1011.152588,359.609894 
	C1010.989990,348.068726 1006.898315,337.702911 999.258240,329.039215 
	C983.477722,311.144318 962.832703,305.964539 940.160278,308.434265 
	C915.039734,311.170685 892.500061,336.019958 891.042358,361.430756 
	C890.930542,362.833405 890.921204,363.863037 890.784180,365.021057 
	C890.637695,365.268555 890.576111,365.401245 890.608765,365.504028 
	C890.677612,365.720825 890.795715,365.921997 890.855225,366.588776 
	C890.834412,387.312103 890.852173,407.576233 890.674194,428.203064 
	C890.566284,432.468933 890.654114,436.372101 890.691833,440.581848 
	C890.705627,441.293274 890.769470,441.698151 890.750854,442.350342 
	C890.778870,442.731781 890.889465,442.865875 891.000000,443.000000 
	C860.979126,443.000000 830.958191,443.000000 800.451721,442.730286 
	C799.903198,442.291779 799.840210,442.122955 799.777222,441.954163 
	C803.305481,425.228973 806.678894,408.469177 810.402710,391.787659 
	C814.666077,372.689087 819.320251,353.678101 823.659912,334.596161 
	C828.995361,311.135406 834.198853,287.644562 839.425476,264.159180 
	C842.768433,249.138077 845.813660,234.044937 849.503174,219.110275 
	C850.615540,214.607376 852.944519,210.165558 855.688354,206.405045 
	C857.083679,204.492844 860.637512,204.155670 864.078613,203.054062 
	C878.625427,202.988373 892.309204,202.975128 906.457397,203.032730 
	C924.206299,203.140747 941.490845,203.228836 958.775208,203.203751 
	C988.519775,203.160583 1018.264282,203.046936 1048.351074,203.074097 
	C1059.444824,202.906525 1070.199951,202.723053 1080.946411,202.314331 
	C1087.745483,202.055725 1094.167725,202.813782 1099.612305,207.374283 
	C1099.612305,207.374283 1099.783447,207.272018 1099.814819,207.621017 
	C1100.588867,209.974762 1101.331543,211.979523 1102.074341,213.984283 
z"/>
<path fill="#FEFEFE" opacity="1.000000" stroke="none" 
	d="
M1113.229004,207.366745 
	C1114.919678,204.083069 1117.567993,202.640732 1121.299316,202.660660 
	C1136.120483,202.739807 1150.942505,202.734619 1165.763672,202.663528 
	C1169.554932,202.645340 1172.210571,203.963104 1173.551758,208.466492 
	C1173.828491,216.824631 1173.882446,224.471390 1173.913330,232.118240 
	C1174.000488,253.723831 1174.078247,275.329468 1174.159912,296.935059 
	C1174.112915,335.172974 1174.065552,373.410919 1174.019409,411.648834 
	C1174.007935,421.125763 1174.000122,430.602722 1173.950195,440.791748 
	C1173.931152,441.675323 1173.952393,441.846832 1173.902344,442.265839 
	C1173.887207,442.675537 1173.943604,442.837769 1174.000000,443.000000 
	C1153.645752,443.000000 1133.291504,443.000000 1112.670166,442.622040 
	C1112.634277,440.490204 1113.065796,438.736450 1113.067261,436.982391 
	C1113.104492,392.556091 1113.079956,348.129791 1113.101929,303.703461 
	C1113.117798,271.591217 1113.184814,239.478989 1113.229004,207.366745 
z"/>
<path fill="#FBFAFB" opacity="1.000000" stroke="none" 
	d="
M115.633896,318.015503 
	C120.923439,318.015503 126.212990,318.015503 131.964203,318.015503 
	C131.964203,338.686462 131.964203,358.716553 131.964203,379.755585 
	C139.003876,370.914948 145.329193,362.891418 151.741455,354.937958 
	C160.838242,343.654755 169.907990,332.346619 179.233414,321.254364 
	C180.588837,319.642090 183.242737,318.476990 185.392090,318.304443 
	C190.631149,317.883850 195.926743,318.167389 202.319397,318.167389 
	C186.481094,336.781555 171.325058,354.593842 155.985733,372.621582 
	C165.747543,387.062042 175.440552,401.400696 185.521454,416.257233 
	C190.854355,423.943085 195.799408,431.111084 200.744446,438.279083 
	C200.744446,438.279083 200.790024,438.156403 200.821533,438.477448 
	C201.482925,439.623627 202.112839,440.448761 202.742737,441.273926 
	C202.742737,441.273926 202.815079,441.051697 202.848373,441.445435 
	C202.921112,442.226135 202.960556,442.613068 203.000000,443.000000 
	C196.645599,443.000000 190.291214,443.000000 183.572052,442.685669 
	C182.861069,441.833649 182.514832,441.295898 182.051392,440.442993 
	C169.368927,421.410278 156.803665,402.692780 144.040710,383.680786 
	C140.263535,388.040222 136.902252,391.730072 133.793747,395.621826 
	C132.849304,396.804260 132.121246,398.540894 132.111557,400.029022 
	C132.024857,413.347900 132.120972,426.667908 132.071259,440.356018 
	C131.986145,441.482941 131.993073,442.241455 132.000000,443.000000 
	C126.645073,443.000000 121.290138,443.000000 115.594955,442.772461 
	C115.203880,442.378693 115.153069,442.212433 115.183563,441.580780 
	C115.270775,402.064484 115.271561,363.013580 115.297493,323.962708 
	C115.298805,321.980255 115.516792,319.997894 115.633896,318.015503 
z"/>
<path fill="#FBFBFC" opacity="1.000000" stroke="none" 
	d="
M299.329224,393.912018 
	C304.793701,410.054626 310.258148,426.197235 315.861298,442.669922 
	C309.978851,443.000000 303.957703,443.000000 297.637207,442.624084 
	C295.538300,436.839233 293.738708,431.430237 291.929535,425.647064 
	C290.156372,420.108368 288.194122,415.000366 286.702667,409.758453 
	C285.786346,406.537933 284.212189,405.340424 280.563721,406.237305 
	C267.725952,406.218384 255.352646,406.277069 242.711472,406.242279 
	C242.088562,406.226868 241.733521,406.304871 241.055511,406.426910 
	C240.440750,407.235260 240.148956,407.999573 239.632019,409.057129 
	C237.959244,413.908112 236.511658,418.465851 234.905228,423.353760 
	C232.830917,430.122620 230.915451,436.561310 229.000000,443.000000 
	C223.311966,443.000000 217.623917,443.000000 211.530930,442.638275 
	C221.862549,410.650513 232.612961,379.029175 243.297089,347.385437 
	C243.864944,345.703613 243.872955,343.832825 244.141571,342.049988 
	C246.765610,335.392822 249.645935,328.820862 251.900131,322.040741 
	C252.948563,318.887268 254.420593,317.950348 257.554688,318.105225 
	C262.358185,318.342529 267.182800,318.151520 272.660400,318.395416 
	C273.566284,319.261780 273.835968,319.866211 274.050568,320.489624 
	C282.144806,344.003998 290.233978,367.520172 298.330322,391.288239 
	C298.512756,391.823822 298.688751,392.107208 298.859558,392.664978 
	C299.012665,393.263580 299.170959,393.587799 299.329224,393.912018 
M254.665054,361.224091 
	C251.198380,371.704834 247.731720,382.185608 244.098587,393.169647 
	C256.857880,392.711426 269.013336,393.595245 281.598816,392.609955 
	C275.382294,373.849152 269.562836,356.286621 263.743347,338.724091 
	C263.085236,338.768524 262.427094,338.812927 261.768982,338.857361 
	C259.467346,346.056885 257.165710,353.256409 254.665054,361.224091 
z"/>
<path fill="#FAF9FB" opacity="1.000000" stroke="none" 
	d="
M683.961914,432.115906 
	C684.184021,435.493805 684.406067,438.871704 684.814087,442.624817 
	C660.645752,443.000000 636.291565,443.000000 611.691833,442.631226 
	C611.697388,440.512177 612.164856,438.762207 612.167664,437.011536 
	C612.231384,397.349030 612.244263,357.686401 612.266663,318.023804 
	C612.266663,318.023804 612.041748,317.978790 612.493408,318.085419 
	C635.640137,318.149719 658.335205,318.107391 681.030212,318.065063 
	C681.114868,322.656586 681.199524,327.248108 680.633972,332.140991 
	C663.073669,332.442383 646.163574,332.442383 629.273621,332.442383 
	C629.273621,346.193665 629.273621,359.280273 629.273621,372.373932 
	C645.559692,372.373932 661.547974,372.373932 677.536255,372.373932 
	C677.976196,376.295868 678.416260,380.217804 678.783081,384.946686 
	C676.992676,386.060944 675.276917,386.625092 673.558044,386.634735 
	C660.298828,386.709167 647.038757,386.633453 633.779846,386.733612 
	C632.217834,386.745392 630.661743,387.540436 629.102905,387.972412 
	C629.061340,388.151855 629.019714,388.331299 628.986389,389.239136 
	C629.036438,402.964417 629.078186,415.961365 629.119934,428.958282 
	C629.061951,429.419128 629.003967,429.879974 629.142212,431.107483 
	C647.546204,431.954773 665.754089,432.035339 683.961914,432.115906 
z"/>
<path fill="#FBFAFC" opacity="1.000000" stroke="none" 
	d="
M406.009705,418.996948 
	C403.870758,427.043488 399.994324,433.978546 392.712463,439.467590 
	C391.312164,440.578705 390.388031,441.262054 389.205994,441.939697 
	C388.632080,442.289337 388.316040,442.644684 388.000000,443.000000 
	C369.312439,443.000000 350.624878,443.000000 331.496521,442.571838 
	C330.760803,439.438171 330.465881,436.732666 330.170959,434.027191 
	C330.170959,434.027191 330.058258,434.044128 330.402588,433.926544 
	C331.651855,431.383698 332.556854,428.958466 333.294220,426.982391 
	C339.691925,429.007599 345.836609,430.952698 351.981262,432.897797 
	C360.578552,435.699097 369.063721,433.837494 377.189362,431.352936 
	C383.998505,429.270966 387.991760,423.753418 389.027130,416.557739 
	C390.220459,408.264069 388.549316,400.650177 381.258881,395.796112 
	C375.918762,392.240601 369.831635,389.809875 364.088806,386.855713 
	C357.897583,383.670868 351.195465,381.180603 345.630249,377.131195 
	C325.891174,362.768433 327.395874,334.605927 348.606140,322.631042 
	C365.760986,312.945801 383.384064,315.069855 401.541718,322.309052 
	C400.001984,326.922974 398.602051,331.117889 396.734680,335.638885 
	C385.633698,330.884888 374.596100,328.537781 362.958069,331.666168 
	C355.428406,333.690247 350.468964,338.622681 349.133575,346.404175 
	C347.810455,354.114502 350.444611,360.665802 356.997742,364.994568 
	C361.526794,367.986298 366.567413,370.217682 371.433960,372.681091 
	C378.518799,376.267487 385.652679,379.757019 392.765625,383.287872 
	C392.765625,383.287872 392.940582,383.139862 393.003418,383.480133 
	C401.463745,389.724243 405.258789,398.258667 406.900146,408.024048 
	C406.845825,409.734924 406.791504,411.445770 406.649353,413.883575 
	C406.377594,416.072662 406.193665,417.534790 406.009705,418.996948 
z"/>
<path fill="#FAF9FB" opacity="1.000000" stroke="none" 
	d="
M508.936951,318.355164 
	C508.921539,322.761932 508.906097,327.168671 508.453796,332.086823 
	C495.440918,332.598206 482.864868,332.598206 470.151550,332.598206 
	C470.151550,369.497498 470.151550,405.736206 470.095642,442.228516 
	C470.026520,442.654755 470.013275,442.827362 470.000000,443.000000 
	C464.645081,443.000000 459.290131,443.000000 453.492310,442.739594 
	C453.004852,442.310577 452.960297,442.141998 452.977600,441.730286 
	C452.988831,441.327881 452.938232,441.168549 452.961914,440.545105 
	C452.985352,404.713593 452.934479,369.346161 452.793701,333.540100 
	C441.324310,332.968323 429.943420,332.896057 418.566986,332.631073 
	C417.003937,332.594666 415.463165,331.600555 413.912079,331.049805 
	C413.992645,327.133392 414.073212,323.216980 414.564484,318.765900 
	C446.295776,318.272552 477.616364,318.313873 508.936951,318.355164 
z"/>
<path fill="#FAF9FB" opacity="1.000000" stroke="none" 
	d="
M522.681274,440.977509 
	C522.763977,432.179626 522.909241,423.381805 522.917908,414.583862 
	C522.947571,384.512207 522.929321,354.440491 522.929382,324.368805 
	C522.929443,322.552460 522.929382,320.736145 522.929382,318.405518 
	C528.593018,318.405518 533.999207,318.405518 539.602783,319.163147 
	C539.787170,356.042603 539.761780,392.164459 539.814331,428.286194 
	C539.816101,429.502075 540.603638,430.716797 541.485046,432.010620 
	C559.279846,432.159760 576.614502,432.230408 593.949219,432.301025 
	C594.193359,435.613586 594.437439,438.926178 594.840759,442.619385 
	C571.312439,443.000000 547.624878,443.000000 523.378052,442.667969 
	C522.772949,441.883148 522.727112,441.430328 522.681274,440.977509 
z"/>
<path fill="#FEFDFE" opacity="1.000000" stroke="none" 
	d="
M1276.000000,1.000000 
	C1277.654419,1.048076 1279.883667,0.381688 1279.017700,3.504920 
	C1278.889038,3.969231 1279.000000,4.500000 1279.000000,5.000000 
	C1279.000000,149.666672 1279.006348,294.333344 1278.897217,438.999908 
	C1278.896240,440.252533 1280.963013,443.314819 1276.484619,442.531555 
	C1275.979492,295.042053 1275.989746,148.021027 1276.000000,1.000000 
z"/>
<path fill="#2F0079" opacity="1.000000" stroke="none" 
	d="
M1.000000,2.000000 
	C1.166509,1.666667 1.315602,1.056188 1.502321,1.044455 
	C2.829991,0.961023 4.165353,1.000000 5.498266,1.000000 
	C428.364899,1.000000 851.231506,1.000000 1274.561035,1.261058 
	C1274.965210,1.686113 1274.906372,1.850110 1274.635498,2.014727 
	C1274.423340,2.015347 1273.998169,2.020880 1273.529785,2.004915 
	C851.228333,1.992002 429.395172,1.994993 7.562005,2.000002 
	C5.729015,2.000024 3.896025,2.028847 1.797264,2.033483 
	C1.354328,2.015164 1.177164,2.007582 1.000000,2.000000 
z"/>
<path fill="#8E76A9" opacity="1.000000" stroke="none" 
	d="
M1274.847534,2.014107 
	C1274.906372,1.850110 1274.965210,1.686113 1275.011963,1.261058 
	C1275.000000,1.000000 1275.500000,1.000000 1275.750000,1.000000 
	C1275.989746,148.021027 1275.979492,295.042053 1275.984619,442.531555 
	C1242.312378,443.000000 1208.624878,443.000000 1174.468628,443.000000 
	C1173.943604,442.837769 1173.887207,442.675537 1174.370850,442.314789 
	C1207.627930,442.097534 1240.345215,442.078827 1273.268066,442.078278 
	C1273.473633,442.096466 1273.886108,442.082306 1274.261719,441.856934 
	C1274.750977,439.648804 1274.963989,437.666077 1274.964233,435.683350 
	C1274.979736,293.124084 1274.979004,150.564835 1274.973022,8.005576 
	C1274.972900,6.008419 1274.891113,4.011264 1274.847534,2.014107 
z"/>
<path fill="#42007E" opacity="1.000000" stroke="none" 
	d="
M1.000000,2.465013 
	C1.177164,2.007582 1.354328,2.015164 1.770033,2.268560 
	C2.008575,2.514373 2.025733,2.987909 2.025733,2.987909 
	C2.019207,149.018021 2.012681,295.048126 1.755889,441.569183 
	C1.337083,442.040070 1.168541,442.020050 1.000000,442.000000 
	C1.000000,295.643341 1.000000,149.286682 1.000000,2.465013 
z"/>
<path fill="#540E85" opacity="1.000000" stroke="none" 
	d="
M522.441650,440.643433 
	C522.727112,441.430328 522.772949,441.883148 522.909363,442.667969 
	C522.555542,443.000000 522.111084,443.000000 521.058228,442.681030 
	C503.683746,442.232971 486.917633,442.103943 470.151550,441.974884 
	C470.151550,405.736206 470.151550,369.497498 470.151550,332.598206 
	C482.864868,332.598206 495.440918,332.598206 508.478241,332.514893 
	C507.350647,332.959412 505.768188,333.920502 504.171875,333.944061 
	C494.509308,334.086945 484.841400,334.132233 475.180084,333.952026 
	C471.854034,333.889984 470.931305,335.063812 470.940521,338.282166 
	C471.034302,371.108459 471.035065,403.935211 470.939880,436.761444 
	C470.930481,440.009430 471.915802,441.100586 475.208649,441.063202 
	C488.537537,440.911926 501.872711,440.825256 515.197693,441.099365 
	C519.676636,441.191559 521.133179,440.079498 521.106995,435.346313 
	C520.904114,398.688354 520.995117,362.028778 520.995117,325.369690 
	C520.995117,323.580719 520.995117,321.791779 520.995117,320.002808 
	C521.318665,320.002808 521.642212,320.002777 521.965759,320.002747 
	C521.965759,321.788116 521.965759,323.573456 521.965759,325.358826 
	C521.965759,361.851288 521.962341,398.343719 521.975769,434.836182 
	C521.976440,436.660614 522.123230,438.484985 522.441650,440.643433 
z"/>
<path fill="#5A218A" opacity="1.000000" stroke="none" 
	d="
M243.766266,342.097961 
	C243.872955,343.832825 243.864944,345.703613 243.297089,347.385437 
	C232.612961,379.029175 221.862549,410.650513 211.062988,442.638275 
	C208.629440,443.000000 206.258896,443.000000 203.444168,443.000000 
	C202.960556,442.613068 202.921112,442.226135 202.787048,441.544922 
	C207.880127,441.829681 210.008591,439.268982 211.530579,434.389648 
	C214.766098,424.016998 219.019028,413.966827 222.556000,403.681702 
	C226.473450,392.290192 230.081192,380.791718 233.778122,369.325073 
	C236.300552,361.501343 238.702621,353.638550 241.264694,345.828094 
	C241.697067,344.510071 242.668549,343.368866 243.766266,342.097961 
z"/>
<path fill="#581888" opacity="1.000000" stroke="none" 
	d="
M1112.985107,207.155548 
	C1113.184814,239.478989 1113.117798,271.591217 1113.101929,303.703461 
	C1113.079956,348.129791 1113.104492,392.556091 1113.067261,436.982391 
	C1113.065796,438.736450 1112.634277,440.490204 1112.201538,442.622040 
	C1111.555542,443.000000 1111.111084,443.000000 1110.327881,442.677063 
	C1109.977783,441.924530 1109.966431,441.494873 1109.955078,441.065247 
	C1110.635132,439.275024 1111.898682,437.487640 1111.907349,435.694153 
	C1112.035156,409.556580 1111.994995,383.418243 1111.994995,357.280060 
	C1111.994995,308.666382 1111.988403,260.052704 1112.026489,211.439041 
	C1112.027588,209.940628 1112.492676,208.442566 1112.985107,207.155548 
z"/>
<path fill="#4F0384" opacity="1.000000" stroke="none" 
	d="
M1109.513428,441.046814 
	C1109.966431,441.494873 1109.977783,441.924530 1109.994629,442.677063 
	C1107.629395,443.000000 1105.258911,443.000000 1102.444092,443.000000 
	C1101.959839,410.407196 1101.899902,377.814362 1101.884888,345.221558 
	C1101.869019,310.797180 1101.896240,276.372772 1101.991211,241.488647 
	C1102.385010,242.933411 1102.959839,244.837708 1102.961182,246.742432 
	C1103.008179,309.215210 1103.000000,371.688049 1103.000000,434.160889 
	C1103.000000,436.138641 1103.000000,438.116364 1103.000000,440.688385 
	C1105.247070,440.814209 1107.159302,440.921265 1109.513428,441.046814 
z"/>
<path fill="#4F0384" opacity="1.000000" stroke="none" 
	d="
M611.910889,318.266296 
	C612.244263,357.686401 612.231384,397.349030 612.167664,437.011536 
	C612.164856,438.762207 611.697388,440.512177 611.223145,442.631226 
	C606.643127,443.000000 602.286194,443.000000 597.464661,443.000000 
	C598.786926,442.338776 600.559875,441.153473 602.363159,441.105438 
	C610.986511,440.875732 610.989502,440.985321 610.989502,432.216187 
	C610.989563,396.271027 610.980713,360.325836 611.013733,324.380707 
	C611.015564,322.423218 611.366638,320.466095 611.910889,318.266296 
z"/>
<path fill="#765699" opacity="1.000000" stroke="none" 
	d="
M891.468628,443.000000 
	C890.889465,442.865875 890.778870,442.731781 891.040894,442.321533 
	C891.606934,442.028625 891.800415,442.011780 892.258057,441.992493 
	C892.697998,441.981018 892.873779,441.971985 893.513123,441.976593 
	C930.618408,441.993073 967.260132,442.009827 1003.901855,441.955017 
	C1005.612305,441.952454 1007.321899,441.311249 1009.033936,440.632874 
	C1009.823975,439.507111 1010.611877,438.715912 1011.399780,437.924683 
	C1011.375488,439.392548 1011.351135,440.860474 1011.163452,442.664185 
	C971.312439,443.000000 931.624878,443.000000 891.468628,443.000000 
z"/>
<path fill="#581888" opacity="1.000000" stroke="none" 
	d="
M229.250000,443.000000 
	C230.915451,436.561310 232.830917,430.122620 235.173218,423.582367 
	C234.145401,429.112305 232.690735,434.743805 231.200256,440.513977 
	C252.646072,440.513977 273.637604,440.513977 295.257050,440.513977 
	C294.398956,437.898621 293.567352,435.921234 293.120361,433.860474 
	C292.561340,431.283264 292.318481,428.637451 291.939117,426.021271 
	C293.738708,431.430237 295.538300,436.839233 297.168945,442.624084 
	C297.000000,443.000000 296.500000,443.000000 295.973907,442.683380 
	C294.966614,442.255371 294.485535,442.046997 294.004242,442.046478 
	C273.721008,442.024719 253.437714,442.006775 233.154602,442.057922 
	C232.102280,442.060577 231.051498,442.671997 230.000000,443.000000 
	C230.000000,443.000000 229.500000,443.000000 229.250000,443.000000 
z"/>
<path fill="#765699" opacity="1.000000" stroke="none" 
	d="
M1.000000,442.500000 
	C1.168541,442.020050 1.337083,442.040070 1.759051,442.034882 
	C2.187771,442.002533 2.363065,441.995392 3.262288,441.986542 
	C40.661442,441.970184 77.336662,441.955566 114.283325,441.979248 
	C114.737267,442.027130 114.919762,442.036682 115.102264,442.046204 
	C115.153069,442.212433 115.203880,442.378693 115.127350,442.772461 
	C77.000000,443.000000 39.000000,443.000000 1.000000,442.500000 
z"/>
<path fill="#765699" opacity="1.000000" stroke="none" 
	d="
M799.473633,441.954773 
	C799.840210,442.122955 799.903198,442.291779 799.983032,442.730286 
	C762.312439,443.000000 724.624878,443.000000 686.468628,443.000000 
	C686.200928,442.717224 686.401794,442.434418 687.302368,442.070282 
	C724.653381,441.982117 761.304871,441.975281 797.956299,441.968445 
	C798.360840,441.964111 798.765442,441.959747 799.473633,441.954773 
z"/>
<path fill="#765699" opacity="1.000000" stroke="none" 
	d="
M230.468658,443.000000 
	C231.051498,442.671997 232.102280,442.060577 233.154602,442.057922 
	C253.437714,442.006775 273.721008,442.024719 294.004242,442.046478 
	C294.485535,442.046997 294.966614,442.255371 295.723907,442.683380 
	C274.312439,443.000000 252.624878,443.000000 230.468658,443.000000 
z"/>
<path fill="#765699" opacity="1.000000" stroke="none" 
	d="
M452.915771,441.973389 
	C452.960297,442.141998 453.004852,442.310577 453.024689,442.739594 
	C431.645782,443.000000 410.291534,443.000000 388.468658,443.000000 
	C388.316040,442.644684 388.632080,442.289337 389.714355,441.962158 
	C411.292297,441.984680 432.104034,441.979034 452.915771,441.973389 
z"/>
<path fill="#765699" opacity="1.000000" stroke="none" 
	d="
M132.468658,443.000000 
	C131.993073,442.241455 131.986145,441.482941 132.249252,440.473328 
	C132.727264,440.426147 132.872131,440.667847 133.222198,441.280701 
	C148.979263,441.732208 164.468033,441.850342 180.299347,441.955261 
	C181.150772,441.547394 181.659668,441.152771 182.168579,440.758179 
	C182.514832,441.295898 182.861069,441.833649 183.103653,442.685669 
	C166.312439,443.000000 149.624878,443.000000 132.468658,443.000000 
z"/>
<path fill="#5F308B" opacity="1.000000" stroke="none" 
	d="
M470.095642,442.228516 
	C486.917633,442.103943 503.683746,442.232971 520.724915,442.681030 
	C504.312439,443.000000 487.624878,443.000000 470.468658,443.000000 
	C470.013275,442.827362 470.026520,442.654755 470.095642,442.228516 
z"/>
<path fill="#540E85" opacity="1.000000" stroke="none" 
	d="
M329.836029,434.212280 
	C330.465881,436.732666 330.760803,439.438171 331.027863,442.571838 
	C326.975464,443.000000 322.950897,443.000000 318.463196,443.000000 
	C319.255371,442.333893 320.447449,441.342926 321.781952,441.082886 
	C323.496338,440.748840 325.325073,441.001740 327.019379,441.001740 
	C327.936462,438.561249 328.718781,436.479340 329.836029,434.212280 
z"/>
<path fill="#FEFEFE" opacity="1.000000" stroke="none" 
	d="
M1180.753906,173.684769 
	C1178.766968,174.516220 1176.790161,176.038086 1174.791626,176.067108 
	C1161.805176,176.255646 1148.813965,176.091537 1135.824341,176.094421 
	C1044.560913,176.114685 953.297424,176.161041 862.033997,176.104019 
	C859.562012,176.102463 857.090759,175.028198 854.383301,173.701874 
	C854.131042,141.682785 854.114624,110.415977 854.098206,79.149185 
	C854.392822,78.790649 854.687439,78.432091 855.477173,77.693985 
	C858.452271,77.240959 860.932068,77.110992 863.412170,77.102798 
	C886.602295,77.026215 909.792480,76.970505 932.982605,76.908752 
	C935.959473,76.970993 936.147217,78.834099 936.138184,81.257935 
	C936.094299,93.007477 936.207153,104.757599 936.881348,116.776222 
	C937.498108,117.044930 937.977112,116.919182 937.977112,116.919182 
	C938.153137,116.963806 938.329102,117.008423 939.228882,117.055649 
	C950.958862,117.007942 961.964966,116.957642 972.971008,116.907333 
	C973.145569,116.955910 973.320129,117.004494 974.000610,117.045166 
	C974.506531,117.037254 974.951233,116.809784 974.951294,116.809784 
	C975.230164,115.292549 975.737000,113.777504 975.751648,112.257721 
	C975.860718,100.883492 975.872620,89.508339 976.447632,77.684052 
	C1003.970764,77.230591 1030.961304,77.226555 1057.951904,77.222519 
	C1058.090210,89.682640 1058.228516,102.142761 1058.449707,115.406021 
	C1059.082153,116.634407 1059.631714,117.059662 1060.181396,117.484917 
	C1060.181396,117.484917 1060.474731,117.404335 1060.529297,117.289131 
	C1060.583740,117.173927 1060.616943,117.313705 1060.616943,117.313705 
	C1072.872192,117.313705 1085.127441,117.313705 1097.936768,117.313705 
	C1097.936768,105.434692 1097.936768,93.374001 1097.936768,81.027527 
	C1125.550903,81.027527 1152.614014,81.027527 1180.470215,81.027527 
	C1180.470215,84.295876 1180.470215,87.404526 1180.551270,91.347610 
	C1180.688599,117.676979 1180.744995,143.171906 1180.653076,168.845490 
	C1180.613770,169.444824 1180.722900,169.865509 1180.775269,170.623169 
	C1180.730347,171.868347 1180.742065,172.776566 1180.753906,173.684769 
z"/>
<path fill="#694490" opacity="1.000000" stroke="none" 
	d="
M2.491867,2.994030 
	C2.025733,2.987909 2.008575,2.514373 2.035806,2.279296 
	C3.896025,2.028847 5.729015,2.000024 7.562005,2.000002 
	C429.395172,1.994993 851.228333,1.992002 1273.541016,2.470388 
	C1274.011963,146.998199 1274.004272,291.044556 1273.990967,435.090942 
	C1273.990723,437.421387 1273.922485,439.751862 1273.886108,442.082306 
	C1273.886108,442.082306 1273.473633,442.096466 1273.257202,441.810333 
	C1273.029175,441.346100 1273.017700,441.167999 1273.006226,440.989899 
	C1273.004272,297.692749 1273.008545,154.395584 1272.986084,11.098426 
	C1272.984619,1.921437 1274.109253,3.013488 1265.139038,3.013163 
	C844.412048,2.997914 423.685028,3.000026 2.491867,2.994030 
z"/>
<path fill="#581888" opacity="1.000000" stroke="none" 
	d="
M1141.017090,177.979263 
	C1046.735596,177.979263 952.454102,177.979263 858.172607,177.979263 
	C858.172363,177.680527 858.172180,177.381775 858.171936,177.083038 
	C952.160889,177.083038 1046.149780,177.083038 1140.581421,177.326080 
	C1141.024048,177.569122 1141.017090,177.979263 1141.017090,177.979263 
z"/>
<path fill="#5A218A" opacity="1.000000" stroke="none" 
	d="
M392.813721,382.920227 
	C385.652679,379.757019 378.518799,376.267487 371.433960,372.681091 
	C366.567413,370.217682 361.526794,367.986298 356.997742,364.994568 
	C350.444611,360.665802 347.810455,354.114502 349.133575,346.404175 
	C350.468964,338.622681 355.428406,333.690247 362.958069,331.666168 
	C374.596100,328.537781 385.633698,330.884888 396.632690,335.991760 
	C395.922333,336.299713 394.530487,337.161865 393.818390,336.774445 
	C383.994690,331.430389 373.612915,330.998840 362.991577,333.204956 
	C354.897552,334.886078 351.640411,341.941864 350.535828,348.443695 
	C349.541443,354.296997 353.707977,359.759247 358.685883,363.956543 
	C366.295563,370.372864 375.999390,371.975830 384.560669,376.146118 
	C387.637817,377.644958 390.112274,380.381104 392.813721,382.920227 
z"/>
<path fill="#5A218A" opacity="1.000000" stroke="none" 
	d="
M452.883575,333.978699 
	C452.934479,369.346161 452.985352,404.713593 452.645752,440.540192 
	C451.833466,440.995117 451.411682,440.990906 450.989929,440.986694 
	C450.990692,405.650940 450.991455,370.315216 451.303040,334.498230 
	C452.037079,334.004211 452.460327,333.991486 452.883575,333.978699 
z"/>
<path fill="#5A218A" opacity="1.000000" stroke="none" 
	d="
M298.323853,391.036072 
	C290.233978,367.520172 282.144806,344.003998 274.050568,320.489624 
	C273.835968,319.866211 273.566284,319.261780 273.121216,318.341553 
	C274.136139,319.064514 276.021759,319.866119 276.463013,321.160248 
	C280.245209,332.252319 283.580841,343.497742 287.417786,354.569824 
	C291.151276,365.343384 295.409790,375.934296 299.216034,386.683929 
	C299.958466,388.780762 299.683472,391.237854 299.603485,393.720398 
	C299.170959,393.587799 299.012665,393.263580 298.860962,392.407471 
	C298.686310,391.595734 298.505096,391.315918 298.323853,391.036072 
z"/>
<path fill="#581888" opacity="1.000000" stroke="none" 
	d="
M932.888184,76.519173 
	C909.792480,76.970505 886.602295,77.026215 863.412170,77.102798 
	C860.932068,77.110992 858.452271,77.240959 855.525757,77.464630 
	C856.697998,76.746567 858.311707,75.133316 859.936462,75.122078 
	C883.372986,74.959854 906.811096,75.001289 930.248657,75.061447 
	C931.097961,75.063622 931.945374,75.757874 932.888184,76.519173 
z"/>
<path fill="#5A218A" opacity="1.000000" stroke="none" 
	d="
M1099.708496,207.004303 
	C1094.167725,202.813782 1087.745483,202.055725 1080.946411,202.314331 
	C1070.199951,202.723053 1059.444824,202.906525 1048.357178,202.832825 
	C1048.021118,202.480316 1048.002930,201.997940 1048.002930,201.997940 
	C1057.451538,201.336960 1066.891968,200.397156 1076.351807,200.120071 
	C1081.985107,199.955093 1087.745361,200.351410 1093.254272,201.460556 
	C1095.686401,201.950241 1097.636108,204.836227 1099.708496,207.004303 
z"/>
<path fill="#42007E" opacity="1.000000" stroke="none" 
	d="
M1047.534058,202.002670 
	C1048.002930,201.997940 1048.021118,202.480316 1048.014893,202.721588 
	C1018.264282,203.046936 988.519775,203.160583 958.775208,203.203751 
	C941.490845,203.228836 924.206299,203.140747 906.451294,202.791885 
	C905.980713,202.480194 906.000000,201.998779 906.000000,201.998779 
	C953.021729,202.001648 1000.043457,202.004517 1047.534058,202.002670 
z"/>
<path fill="#4F0384" opacity="1.000000" stroke="none" 
	d="
M677.751221,372.118011 
	C661.547974,372.373932 645.559692,372.373932 629.273621,372.373932 
	C629.273621,359.280273 629.273621,346.193665 629.273621,332.442383 
	C646.163574,332.442383 663.073669,332.442383 680.444214,332.473236 
	C679.302856,333.003723 677.704529,333.923645 676.098755,333.936951 
	C662.281494,334.051880 648.460754,334.132111 634.645813,333.919556 
	C630.824402,333.860748 629.816833,335.125153 629.909241,338.785980 
	C630.140259,347.936829 630.146606,357.101654 629.906006,366.252014 
	C629.808411,369.964050 630.911316,371.136932 634.681580,371.078552 
	C648.163635,370.869812 661.650940,370.979401 675.136047,371.033936 
	C676.080444,371.037750 677.022827,371.573608 677.751221,372.118011 
z"/>
<path fill="#45007F" opacity="1.000000" stroke="none" 
	d="
M115.183563,441.580780 
	C114.919762,442.036682 114.737267,442.027130 114.275284,441.738831 
	C113.995796,441.460144 113.977180,440.978516 113.977180,440.978516 
	C113.985893,402.038849 113.982796,363.099121 114.038673,324.159546 
	C114.041428,322.243408 114.559074,320.328003 115.235428,318.213867 
	C115.516792,319.997894 115.298805,321.980255 115.297493,323.962708 
	C115.271561,363.013580 115.270775,402.064484 115.183563,441.580780 
z"/>
<path fill="#2F0079" opacity="1.000000" stroke="none" 
	d="
M541.024963,431.932068 
	C540.603638,430.716797 539.816101,429.502075 539.814331,428.286194 
	C539.761780,392.164459 539.787170,356.042603 539.897217,319.460815 
	C539.994141,319.000885 540.463196,319.007721 540.722534,319.471313 
	C541.003723,356.941498 541.025696,393.948090 541.037354,431.198914 
	C541.027100,431.443146 541.024963,431.932068 541.024963,431.932068 
z"/>
<path fill="#694490" opacity="1.000000" stroke="none" 
	d="
M541.047607,430.954681 
	C541.025696,393.948090 541.003723,356.941498 540.957031,319.466125 
	C541.288086,320.876434 541.951233,322.754944 541.954529,324.634644 
	C542.016479,359.771667 542.000000,394.908844 541.759155,430.526062 
	C541.518311,431.006104 541.047668,430.954681 541.047607,430.954681 
z"/>
<path fill="#540E85" opacity="1.000000" stroke="none" 
	d="
M797.668274,441.672852 
	C761.304871,441.975281 724.653381,441.982117 687.542969,441.960510 
	C688.312927,441.621857 689.541443,441.042267 690.770813,441.040527 
	C725.496033,440.992096 760.221252,440.999390 794.946533,441.017944 
	C795.757812,441.018372 796.569031,441.252258 797.668274,441.672852 
z"/>
<path fill="#540E85" opacity="1.000000" stroke="none" 
	d="
M113.510895,440.988586 
	C113.977180,440.978516 113.995796,441.460144 114.003845,441.700562 
	C77.336662,441.955566 40.661442,441.970184 3.524832,441.968597 
	C4.958635,441.635345 6.853381,441.044830 8.749078,441.041779 
	C43.514187,440.985443 78.279404,440.999542 113.510895,440.988586 
z"/>
<path fill="#540E85" opacity="1.000000" stroke="none" 
	d="
M1272.536865,440.992188 
	C1273.017700,441.167999 1273.029175,441.346100 1273.051636,441.792145 
	C1240.345215,442.078827 1207.627930,442.097534 1174.442139,442.067291 
	C1173.952393,441.846832 1173.931152,441.675323 1173.995972,441.259338 
	C1206.744019,441.008087 1239.405762,441.001282 1272.536865,440.992188 
z"/>
<path fill="#3C007C" opacity="1.000000" stroke="none" 
	d="
M853.969116,78.983490 
	C854.114624,110.415977 854.131042,141.682785 854.117065,173.408386 
	C853.778809,174.009628 853.471069,174.152054 853.070007,173.657669 
	C852.964355,141.700073 852.952026,110.379288 852.939697,79.058502 
	C853.239807,78.978279 853.539917,78.898048 853.969116,78.983490 
z"/>
<path fill="#42007E" opacity="1.000000" stroke="none" 
	d="
M508.722992,317.985413 
	C477.616364,318.313873 446.295776,318.272552 414.519867,318.330902 
	C415.188293,317.954712 416.311035,317.065887 417.435913,317.063232 
	C447.176208,316.993042 476.916748,317.010773 506.657196,317.044922 
	C507.274719,317.045624 507.891754,317.417145 508.722992,317.985413 
z"/>
<path fill="#694490" opacity="1.000000" stroke="none" 
	d="
M852.653748,79.351501 
	C852.952026,110.379288 852.964355,141.700073 852.960327,173.482971 
	C852.630981,172.713303 852.046875,171.481964 852.044800,170.249664 
	C851.995422,140.693665 852.006165,111.137566 852.024963,81.581497 
	C852.025391,80.935760 852.248535,80.290161 852.653748,79.351501 
z"/>
<path fill="#3C007C" opacity="1.000000" stroke="none" 
	d="
M1180.927490,173.932495 
	C1180.742065,172.776566 1180.730347,171.868347 1180.845947,170.216522 
	C1180.916016,169.204208 1180.858643,168.935532 1180.801270,168.666840 
	C1180.744995,143.171906 1180.688599,117.676979 1180.710938,91.740494 
	C1181.006470,88.061569 1181.223267,84.824188 1181.720459,81.762711 
	C1181.987305,112.959961 1181.973511,143.981293 1181.959717,175.002625 
	C1181.673584,174.728485 1181.387329,174.454361 1180.927490,173.932495 
z"/>
<path fill="#694490" opacity="1.000000" stroke="none" 
	d="
M1182.267090,174.715759 
	C1181.973511,143.981293 1181.987305,112.959961 1182.006104,81.470230 
	C1182.340698,82.229385 1182.955688,83.456413 1182.957886,84.684547 
	C1183.010986,113.791580 1183.001709,142.898743 1182.979980,172.005859 
	C1182.979370,172.813644 1182.715698,173.621231 1182.267090,174.715759 
z"/>
<path fill="#5A218A" opacity="1.000000" stroke="none" 
	d="
M905.613403,201.947632 
	C906.000000,201.998779 905.980713,202.480194 905.986816,202.721039 
	C892.309204,202.975128 878.625427,202.988373 864.476929,202.943237 
	C865.463257,201.928589 866.895874,200.177490 868.368164,200.143509 
	C878.816772,199.902283 889.274902,199.922119 899.726074,200.095764 
	C901.569153,200.126404 903.393738,201.267944 905.613403,201.947632 
M877.551514,201.034668 
	C874.458252,201.034668 871.365051,201.034668 868.271790,201.034668 
	C868.285034,201.254883 868.298340,201.475098 868.311584,201.695312 
	C876.837524,201.695312 885.363525,201.695312 893.889465,201.695312 
	C893.891418,201.475143 893.893372,201.254959 893.895325,201.034790 
	C888.774841,201.034790 883.654419,201.034790 877.551514,201.034668 
z"/>
<path fill="#4F0384" opacity="1.000000" stroke="none" 
	d="
M1174.423584,296.622192 
	C1174.078247,275.329468 1174.000488,253.723831 1173.913330,232.118240 
	C1173.882446,224.471390 1173.828491,216.824631 1173.800537,208.728882 
	C1174.209473,208.481003 1174.947754,208.682709 1174.947388,208.883102 
	C1174.895630,238.025253 1174.790405,267.167297 1174.423584,296.622192 
z"/>
<path fill="#3C007C" opacity="1.000000" stroke="none" 
	d="
M1057.721680,76.866913 
	C1030.961304,77.226555 1003.970764,77.230591 976.515503,77.233856 
	C977.212585,76.824348 978.373535,76.061874 979.536438,76.058929 
	C1004.891052,75.994911 1030.245972,76.011810 1055.600708,76.040146 
	C1056.231201,76.040855 1056.861328,76.347404 1057.721680,76.866913 
z"/>
<path fill="#694490" opacity="1.000000" stroke="none" 
	d="
M1098.016724,79.038803 
	C1099.232544,78.692055 1100.447876,78.045486 1101.664429,78.042770 
	C1126.937378,77.986397 1152.210327,78.000145 1177.483398,78.021713 
	C1178.127075,78.022263 1178.770630,78.267281 1179.240234,78.699402 
	C1152.049683,79.013275 1125.033203,79.026047 1098.016724,79.038803 
z"/>
<path fill="#3C007C" opacity="1.000000" stroke="none" 
	d="
M1098.321533,79.314117 
	C1125.033203,79.026047 1152.049683,79.013275 1179.535400,78.995605 
	C1178.767334,79.284920 1177.530518,79.833435 1176.292603,79.835831 
	C1151.056519,79.884605 1125.820435,79.873016 1100.584229,79.857979 
	C1099.931519,79.857590 1099.278931,79.682846 1098.321533,79.314117 
z"/>
<path fill="#5A218A" opacity="1.000000" stroke="none" 
	d="
M407.269714,407.950562 
	C405.258789,398.258667 401.463745,389.724243 392.900543,383.530579 
	C395.274231,384.784119 398.118042,385.988098 400.292206,387.938568 
	C405.453186,392.568512 407.528351,398.911163 408.830902,405.497681 
	C408.966888,406.185364 408.061554,407.078979 407.269714,407.950562 
z"/>
<path fill="#45007F" opacity="1.000000" stroke="none" 
	d="
M680.749878,317.748352 
	C658.335205,318.107391 635.640137,318.149719 612.471802,318.198059 
	C613.186768,317.804535 614.374023,317.060577 615.563660,317.056702 
	C636.555969,316.988739 657.548645,317.007324 678.541199,317.031311 
	C679.184082,317.032043 679.826782,317.292358 680.749878,317.748352 
z"/>
<path fill="#540E85" opacity="1.000000" stroke="none" 
	d="
M450.522339,440.995087 
	C451.411682,440.990906 451.833466,440.995117 452.571411,441.004272 
	C452.938232,441.168549 452.988831,441.327881 452.977600,441.730286 
	C432.104034,441.979034 411.292297,441.984680 389.972229,441.967865 
	C390.388031,441.262054 391.312164,440.578705 392.550232,439.746246 
	C394.675781,440.064941 396.484955,440.928131 398.299286,440.939087 
	C415.550629,441.043121 432.802795,441.002502 450.522339,440.995087 
z"/>
<path fill="#581888" opacity="1.000000" stroke="none" 
	d="
M351.935791,432.540894 
	C345.836609,430.952698 339.691925,429.007599 333.294220,426.982391 
	C332.556854,428.958466 331.651855,431.383698 330.421875,433.980164 
	C330.077637,432.488007 329.410767,430.366089 330.188843,429.267365 
	C331.396027,427.562622 333.869598,425.197113 335.311218,425.496368 
	C340.445282,426.562225 345.385803,428.591949 350.355255,430.380066 
	C350.999847,430.612000 351.385010,431.564972 351.935791,432.540894 
z"/>
<path fill="#4F0384" opacity="1.000000" stroke="none" 
	d="
M683.706543,431.782715 
	C665.754089,432.035339 647.546204,431.954773 629.214355,431.450836 
	C645.905457,431.017944 662.720520,430.998444 679.535645,431.018494 
	C680.841003,431.020020 682.146057,431.299316 683.706543,431.782715 
z"/>
<path fill="#45007F" opacity="1.000000" stroke="none" 
	d="
M629.564758,387.984283 
	C630.661743,387.540436 632.217834,386.745392 633.779846,386.733612 
	C647.038757,386.633453 660.298828,386.709167 673.558044,386.634735 
	C675.276917,386.625092 676.992676,386.060944 678.888916,385.395386 
	C680.072632,389.417969 676.566772,387.901428 674.883484,387.916412 
	C659.932129,388.049713 644.979126,387.995239 629.564758,387.984283 
z"/>
<path fill="#45007F" opacity="1.000000" stroke="none" 
	d="
M541.037354,431.198914 
	C541.047668,430.954681 541.518311,431.006104 541.754639,430.993469 
	C557.382019,430.989929 572.773132,430.980743 588.164001,431.033020 
	C589.944397,431.039062 591.723572,431.386597 593.726318,431.938446 
	C576.614502,432.230408 559.279846,432.159760 541.485046,432.010620 
	C541.024963,431.932068 541.027100,431.443146 541.037354,431.198914 
z"/>
<path fill="#5A218A" opacity="1.000000" stroke="none" 
	d="
M200.802338,437.900330 
	C195.799408,431.111084 190.854355,423.943085 185.796570,416.441833 
	C186.824890,416.638000 188.468872,416.853455 189.026657,417.746979 
	C193.093765,424.261993 196.942490,430.913330 200.802338,437.900330 
z"/>
<path fill="#3C007C" opacity="1.000000" stroke="none" 
	d="
M1169.001709,201.023026 
	C1168.423096,201.292053 1167.843994,201.797073 1167.265991,201.795776 
	C1151.048462,201.759613 1134.830933,201.672226 1118.774536,201.303284 
	C1135.624268,201.016571 1152.312988,201.019806 1169.001709,201.023026 
z"/>
<path fill="#694490" opacity="1.000000" stroke="none" 
	d="
M1168.711792,200.720032 
	C1152.312988,201.019806 1135.624268,201.016571 1118.466675,201.027878 
	C1118.549683,200.716583 1119.102783,200.104309 1119.653320,200.106552 
	C1135.909546,200.172577 1152.165771,200.299652 1168.711792,200.720032 
z"/>
<path fill="#4F0384" opacity="1.000000" stroke="none" 
	d="
M452.793701,333.540100 
	C452.460327,333.991486 452.037079,334.004211 451.296234,334.032654 
	C440.073456,334.034027 429.166168,334.121368 418.265381,333.895355 
	C416.639069,333.861633 415.043335,332.355286 413.672760,331.290009 
	C415.463165,331.600555 417.003937,332.594666 418.566986,332.631073 
	C429.943420,332.896057 441.324310,332.968323 452.793701,333.540100 
z"/>
<path fill="#45007F" opacity="1.000000" stroke="none" 
	d="
M1060.134766,116.977203 
	C1059.631714,117.059662 1059.082153,116.634407 1058.623779,115.804726 
	C1058.714966,103.003342 1058.714966,90.606377 1058.714966,78.209419 
	C1059.172729,78.207947 1059.630371,78.206482 1060.088135,78.205009 
	C1060.088135,90.959839 1060.088135,103.714661 1060.134766,116.977203 
z"/>
<path fill="#45007F" opacity="1.000000" stroke="none" 
	d="
M937.981812,116.455772 
	C937.977112,116.919182 937.498108,117.044930 937.269287,116.950653 
	C937.040466,103.965393 937.040466,91.074402 937.040466,78.183418 
	C937.355774,78.181778 937.671143,78.180138 937.986450,78.178497 
	C937.986450,90.783119 937.986450,103.387741 937.981812,116.455772 
z"/>
<path fill="#4F0384" opacity="1.000000" stroke="none" 
	d="
M629.393188,428.650452 
	C629.078186,415.961365 629.036438,402.964417 629.059326,389.505615 
	C629.410889,390.115540 629.949890,391.188324 629.945862,392.259033 
	C629.900879,404.287079 629.772461,416.314819 629.393188,428.650452 
z"/>
<path fill="#45007F" opacity="1.000000" stroke="none" 
	d="
M974.928223,116.353745 
	C974.951233,116.809784 974.506531,117.037254 974.264038,116.977699 
	C974.021484,104.355385 974.021484,91.792625 974.021484,79.229866 
	C974.316040,79.227837 974.610596,79.225815 974.905151,79.223785 
	C974.905151,91.448425 974.905151,103.673073 974.928223,116.353745 
z"/>
<path fill="#4F0384" opacity="1.000000" stroke="none" 
	d="
M1141.484009,177.984863 
	C1141.017090,177.979263 1141.024048,177.569122 1141.053467,177.367371 
	C1153.000732,177.165634 1164.918579,177.165634 1176.836426,177.165634 
	C1176.838501,177.440582 1176.840698,177.715515 1176.842773,177.990463 
	C1165.212158,177.990463 1153.581543,177.990463 1141.484009,177.984863 
z"/>
<path fill="#45007F" opacity="1.000000" stroke="none" 
	d="
M1060.521973,117.137222 
	C1061.206543,116.766647 1061.951416,116.146179 1062.699585,116.141960 
	C1073.785522,116.079567 1084.871826,116.098900 1095.956787,117.048630 
	C1084.504395,117.048630 1073.052124,117.048630 1061.108398,117.181168 
	C1060.616943,117.313705 1060.583740,117.173927 1060.521973,117.137222 
z"/>
<path fill="#4F0384" opacity="1.000000" stroke="none" 
	d="
M972.669312,116.623917 
	C961.964966,116.957642 950.958862,117.007942 939.491211,116.982666 
	C941.413757,116.606239 943.797852,116.050926 946.182007,116.050087 
	C954.910522,116.047012 963.639038,116.228508 972.669312,116.623917 
z"/>
<path fill="#5A218A" opacity="1.000000" stroke="none" 
	d="
M406.393433,418.990173 
	C406.193665,417.534790 406.377594,416.072662 406.752167,414.300598 
	C409.957245,415.756836 410.085602,417.427124 406.393433,418.990173 
z"/>
<path fill="#5A218A" opacity="1.000000" stroke="none" 
	d="
M1102.335083,213.748810 
	C1101.331543,211.979523 1100.588867,209.974762 1099.716064,207.634155 
	C1100.589111,209.369965 1101.592407,211.441650 1102.335083,213.748810 
z"/>
<path fill="#5A218A" opacity="1.000000" stroke="none" 
	d="
M202.803894,440.915680 
	C202.112839,440.448761 201.482925,439.623627 200.758392,438.494659 
	C201.397522,438.979706 202.131287,439.768555 202.803894,440.915680 
z"/>
<path fill="#5F308B" opacity="1.000000" stroke="none" 
	d="
M1011.541748,437.480591 
	C1010.611877,438.715912 1009.823975,439.507111 1008.561951,440.643066 
	C971.636536,440.992249 935.185181,440.982361 898.733887,441.042145 
	C896.838684,441.045258 894.944336,441.642395 893.049622,441.962952 
	C892.873779,441.971985 892.697998,441.981018 892.259766,441.524323 
	C891.993103,416.306335 892.007263,391.554016 891.948181,366.801880 
	C891.943604,364.886536 891.424683,362.972443 891.144836,361.057770 
	C892.500061,336.019958 915.039734,311.170685 940.160278,308.434265 
	C962.832703,305.964539 983.477722,311.144318 999.258240,329.039215 
	C1006.898315,337.702911 1010.989990,348.068726 1011.152588,359.609894 
	C1011.516113,385.416107 1011.528381,411.227295 1011.541748,437.480591 
z"/>
<path fill="#3C007C" opacity="1.000000" stroke="none" 
	d="
M891.042358,361.430756 
	C891.424683,362.972443 891.943604,364.886536 891.948181,366.801880 
	C892.007263,391.554016 891.993103,416.306335 891.995667,441.526764 
	C891.800415,442.011780 891.606934,442.028625 891.123413,442.074219 
	C890.769470,441.698151 890.705627,441.293274 890.844482,440.118774 
	C890.988098,435.512878 890.929016,431.676605 890.869873,427.840363 
	C890.852173,407.576233 890.834412,387.312103 890.944031,366.280701 
	C891.018188,365.306549 890.964966,365.099640 890.911804,364.892700 
	C890.921204,363.863037 890.930542,362.833405 891.042358,361.430756 
z"/>
<path fill="#765699" opacity="1.000000" stroke="none" 
	d="
M890.674194,428.203064 
	C890.929016,431.676605 890.988098,435.512878 890.894531,439.812195 
	C890.654114,436.372101 890.566284,432.468933 890.674194,428.203064 
z"/>
<path fill="#765699" opacity="1.000000" stroke="none" 
	d="
M890.784180,365.021057 
	C890.964966,365.099640 891.018188,365.306549 890.982544,365.821533 
	C890.795715,365.921997 890.677612,365.720825 890.608765,365.504028 
	C890.576111,365.401245 890.637695,365.268555 890.784180,365.021057 
z"/>
<path fill="#5F308B" opacity="1.000000" stroke="none" 
	d="
M132.953903,440.947388 
	C132.872131,440.667847 132.727264,440.426147 132.341293,440.104950 
	C132.120972,426.667908 132.024857,413.347900 132.111557,400.029022 
	C132.121246,398.540894 132.849304,396.804260 133.793747,395.621826 
	C136.902252,391.730072 140.263535,388.040222 144.040710,383.680786 
	C156.803665,402.692780 169.368927,421.410278 182.051376,440.442993 
	C181.659668,441.152771 181.150772,441.547394 180.013275,441.657928 
	C163.907745,441.231689 148.430832,441.089539 132.953903,440.947388 
z"/>
<path fill="#60318C" opacity="1.000000" stroke="none" 
	d="
M291.929535,425.647064 
	C292.318481,428.637451 292.561340,431.283264 293.120361,433.860474 
	C293.567352,435.921234 294.398956,437.898621 295.257050,440.513977 
	C273.637604,440.513977 252.646072,440.513977 231.200256,440.513977 
	C232.690735,434.743805 234.145401,429.112305 235.332062,423.252197 
	C236.511658,418.465851 237.959244,413.908112 239.864609,409.262085 
	C242.174744,408.781708 244.024139,408.067322 245.879944,408.050293 
	C257.282654,407.945496 268.686798,407.997009 280.090485,408.000305 
	C281.434021,408.000702 283.239655,408.281799 281.028137,406.314911 
	C284.212189,405.340424 285.786346,406.537933 286.702667,409.758453 
	C288.194122,415.000366 290.156372,420.108368 291.929535,425.647064 
z"/>
<path fill="#60318C" opacity="1.000000" stroke="none" 
	d="
M254.764557,360.840027 
	C257.165710,353.256409 259.467346,346.056885 261.768982,338.857361 
	C262.427094,338.812927 263.085236,338.768524 263.743347,338.724091 
	C269.562836,356.286621 275.382294,373.849152 281.598816,392.609955 
	C269.013336,393.595245 256.857880,392.711426 244.098587,393.169647 
	C247.731720,382.185608 251.198380,371.704834 254.764557,360.840027 
M265.486206,391.988556 
	C269.598419,391.988556 273.710663,391.988556 277.822876,391.988556 
	C277.814423,391.768951 277.805939,391.549377 277.797485,391.329773 
	C267.930115,391.329773 258.062775,391.329773 248.195404,391.329773 
	C248.195190,391.549377 248.194962,391.768951 248.194748,391.988556 
	C253.627319,391.988556 259.059906,391.988556 265.486206,391.988556 
z"/>
<path fill="#581888" opacity="1.000000" stroke="none" 
	d="
M280.563721,406.237305 
	C283.239655,408.281799 281.434021,408.000702 280.090485,408.000305 
	C268.686798,407.997009 257.282654,407.945496 245.879944,408.050293 
	C244.024139,408.067322 242.174744,408.781708 240.089783,408.968811 
	C240.148956,407.999573 240.440750,407.235260 241.312210,406.591492 
	C242.254364,406.586609 242.616852,406.461182 242.979340,406.335754 
	C255.352646,406.277069 267.725952,406.218384 280.563721,406.237305 
z"/>
<path fill="#60318C" opacity="1.000000" stroke="none" 
	d="
M242.711472,406.242310 
	C242.616852,406.461182 242.254364,406.586609 241.635178,406.547485 
	C241.733521,406.304871 242.088562,406.226868 242.711472,406.242310 
z"/>
<path fill="#5F308B" opacity="1.000000" stroke="none" 
	d="
M298.330322,391.288239 
	C298.505096,391.315918 298.686310,391.595734 298.866150,392.133118 
	C298.688751,392.107208 298.512756,391.823822 298.330322,391.288239 
z"/>
<path fill="#45007F" opacity="1.000000" stroke="none" 
	d="
M1274.261719,441.856934 
	C1273.922485,439.751862 1273.990723,437.421387 1273.990967,435.090942 
	C1274.004272,291.044556 1274.011963,146.998199 1274.009277,2.486352 
	C1273.998169,2.020880 1274.423340,2.015347 1274.635498,2.014727 
	C1274.891113,4.011264 1274.972900,6.008419 1274.973022,8.005576 
	C1274.979004,150.564835 1274.979736,293.124084 1274.964233,435.683350 
	C1274.963989,437.666077 1274.750977,439.648804 1274.261719,441.856934 
z"/>
<path fill="#540E85" opacity="1.000000" stroke="none" 
	d="
M893.513123,441.976593 
	C894.944336,441.642395 896.838684,441.045258 898.733887,441.042145 
	C935.185181,440.982361 971.636536,440.992249 1008.559875,440.977631 
	C1007.321899,441.311249 1005.612305,441.952454 1003.901855,441.955017 
	C967.260132,442.009827 930.618408,441.993073 893.513123,441.976593 
z"/>
<path fill="#540E85" opacity="1.000000" stroke="none" 
	d="
M133.222198,441.280701 
	C148.430832,441.089539 163.907745,441.231689 179.670746,441.671173 
	C164.468033,441.850342 148.979263,441.732208 133.222198,441.280701 
z"/>
<path fill="#5F308B" opacity="1.000000" stroke="none" 
	d="
M1180.652954,168.845490 
	C1180.858643,168.935532 1180.916016,169.204208 1180.902588,169.879547 
	C1180.722900,169.865509 1180.613770,169.444824 1180.652954,168.845490 
z"/>
<path fill="#45007F" opacity="1.000000" stroke="none" 
	d="
M878.042725,201.034729 
	C883.654419,201.034790 888.774841,201.034790 893.895325,201.034790 
	C893.893372,201.254959 893.891418,201.475143 893.889465,201.695312 
	C885.363525,201.695312 876.837524,201.695312 868.311584,201.695312 
	C868.298340,201.475098 868.285034,201.254883 868.271790,201.034668 
	C871.365051,201.034668 874.458252,201.034668 878.042725,201.034729 
z"/>
<path fill="#4F0384" opacity="1.000000" stroke="none" 
	d="
M264.989349,391.988556 
	C259.059906,391.988556 253.627319,391.988556 248.194748,391.988556 
	C248.194962,391.768951 248.195190,391.549377 248.195404,391.329773 
	C258.062775,391.329773 267.930115,391.329773 277.797485,391.329773 
	C277.805939,391.549377 277.814423,391.768951 277.822876,391.988556 
	C273.710663,391.988556 269.598419,391.988556 264.989349,391.988556 
z"/>
</svg>